HIERARCHY
ROOT Hips
{
	OFFSET 0.000000 97.167313 0.000000
	CHANNELS 6 Xposition Yposition Zposition Xrotation Yrotation Zrotation
	JOINT Spine
	{
		OFFSET 0.000000 13.784798 0.064400
		CHANNELS 3 Xrotation Yrotation Zrotation
		JOINT Spine1
		{
			OFFSET 0.000000 12.037903 0.404700
			CHANNELS 3 Xrotation Yrotation Zrotation
			JOINT Spine2
			{
				OFFSET 0.000000 17.795601 0.420200
				CHANNELS 3 Xrotation Yrotation Zrotation
				JOINT Neck
				{
					OFFSET 0.000000 39.131302 11.954600
					CHANNELS 3 Xrotation Yrotation Zrotation
					JOINT Head
					{
						OFFSET 0.000000 14.456192 15.627699
						CHANNELS 3 Xrotation Yrotation Zrotation
						JOINT HeadTop_End
						{
							OFFSET 0.000000 15.703506 7.603401
							CHANNELS 3 Xrotation Yrotation Zrotation
							End Site
							{
								OFFSET 0.000000 17.447403 0.000000
							}
						}
					}
				}
				JOINT LeftShoulder
				{
					OFFSET 17.399500 24.608795 1.168800
					CHANNELS 3 Xrotation Yrotation Zrotation
					JOINT LeftArm
					{
						OFFSET 18.980635 5.765305 1.818600
						CHANNELS 3 Xrotation Yrotation Zrotation
						JOINT LeftForeArm
						{
							OFFSET 49.290169 0.000000 0.000000
							CHANNELS 3 Xrotation Yrotation Zrotation
							JOINT LeftHand
							{
								OFFSET 31.562012 0.000000 0.000000
								CHANNELS 3 Xrotation Yrotation Zrotation
								JOINT LeftHandThumb1
								{
									OFFSET 6.133995 -4.388519 7.076070
									CHANNELS 3 Xrotation Yrotation Zrotation
									JOINT LeftHandThumb2
									{
										OFFSET 6.037666 -3.485840 3.485847
										CHANNELS 3 Xrotation Yrotation Zrotation
										JOINT LeftHandThumb3
										{
											OFFSET 6.496506 -3.750763 3.750761
											CHANNELS 3 Xrotation Yrotation Zrotation
											JOINT LeftHandThumb4
											{
												OFFSET 5.616882 -3.242905 3.242910
												CHANNELS 3 Xrotation Yrotation Zrotation
												End Site
												{
													OFFSET -1.254608 7.132141 0.375429
												}
											}
										}
									}
								}
								JOINT LeftHandPinky1
								{
									OFFSET 18.920792 -0.453171 -11.426712
									CHANNELS 3 Xrotation Yrotation Zrotation
									JOINT LeftHandPinky2
									{
										OFFSET 4.919586 0.000000 0.000000
										CHANNELS 3 Xrotation Yrotation Zrotation
										JOINT LeftHandPinky3
										{
											OFFSET 5.233047 0.000000 0.000000
											CHANNELS 3 Xrotation Yrotation Zrotation
											JOINT LeftHandPinky4
											{
												OFFSET 5.571716 0.000000 0.000000
												CHANNELS 3 Xrotation Yrotation Zrotation
												End Site
												{
													OFFSET -3.459808 4.342407 -0.466164
												}
											}
										}
									}
								}
								JOINT LeftHandRing1
								{
									OFFSET 22.726120 -0.094986 -6.500475
									CHANNELS 3 Xrotation Yrotation Zrotation
									JOINT LeftHandRing2
									{
										OFFSET 6.408615 0.000000 0.000000
										CHANNELS 3 Xrotation Yrotation Zrotation
										JOINT LeftHandRing3
										{
											OFFSET 6.150223 0.000000 0.000000
											CHANNELS 3 Xrotation Yrotation Zrotation
											JOINT LeftHandRing4
											{
												OFFSET 6.145386 0.000000 0.000000
												CHANNELS 3 Xrotation Yrotation Zrotation
												End Site
												{
													OFFSET -3.671402 4.923981 -0.202372
												}
											}
										}
									}
								}
								JOINT LeftHandMiddle1
								{
									OFFSET 23.373947 0.000000 0.000001
									CHANNELS 3 Xrotation Yrotation Zrotation
									JOINT LeftHandMiddle2
									{
										OFFSET 6.996567 0.000000 0.000000
										CHANNELS 3 Xrotation Yrotation Zrotation
										JOINT LeftHandMiddle3
										{
											OFFSET 7.015945 0.000000 0.000000
											CHANNELS 3 Xrotation Yrotation Zrotation
											JOINT LeftHandMiddle4
											{
												OFFSET 7.721573 0.000000 0.000000
												CHANNELS 3 Xrotation Yrotation Zrotation
												End Site
												{
													OFFSET -4.651108 6.158463 0.251582
												}
											}
										}
									}
								}
								JOINT LeftHandIndex1
								{
									OFFSET 21.310577 -0.490082 6.209344
									CHANNELS 3 Xrotation Yrotation Zrotation
									JOINT LeftHandIndex2
									{
										OFFSET 7.536453 0.000000 0.000000
										CHANNELS 3 Xrotation Yrotation Zrotation
										JOINT LeftHandIndex3
										{
											OFFSET 7.512344 0.000000 0.000000
											CHANNELS 3 Xrotation Yrotation Zrotation
											JOINT LeftHandIndex4
											{
												OFFSET 10.212402 0.000000 0.000001
												CHANNELS 3 Xrotation Yrotation Zrotation
												End Site
												{
													OFFSET -5.180801 8.690506 1.388433
												}
											}
										}
									}
								}
							}
						}
					}
				}
				JOINT RightShoulder
				{
					OFFSET -17.399500 24.608795 1.168800
					CHANNELS 3 Xrotation Yrotation Zrotation
					JOINT RightArm
					{
						OFFSET -18.980635 5.765305 1.818600
						CHANNELS 3 Xrotation Yrotation Zrotation
						JOINT RightForeArm
						{
							OFFSET -49.290169 0.000000 0.000000
							CHANNELS 3 Xrotation Yrotation Zrotation
							JOINT RightHand
							{
								OFFSET -31.562012 0.000000 0.000000
								CHANNELS 3 Xrotation Yrotation Zrotation
								JOINT RightHandThumb1
								{
									OFFSET -6.133995 -4.388519 7.076070
									CHANNELS 3 Xrotation Yrotation Zrotation
									JOINT RightHandThumb2
									{
										OFFSET -6.037666 -3.485840 3.485847
										CHANNELS 3 Xrotation Yrotation Zrotation
										JOINT RightHandThumb3
										{
											OFFSET -6.496506 -3.750763 3.750761
											CHANNELS 3 Xrotation Yrotation Zrotation
											JOINT RightHandThumb4
											{
												OFFSET -5.616882 -3.242905 3.242910
												CHANNELS 3 Xrotation Yrotation Zrotation
												End Site
												{
													OFFSET 1.254608 7.132141 0.375429
												}
											}
										}
									}
								}
								JOINT RightHandIndex1
								{
									OFFSET -21.310577 -0.490082 6.209344
									CHANNELS 3 Xrotation Yrotation Zrotation
									JOINT RightHandIndex2
									{
										OFFSET -7.536453 0.000000 0.000000
										CHANNELS 3 Xrotation Yrotation Zrotation
										JOINT RightHandIndex3
										{
											OFFSET -7.512344 0.000000 0.000000
											CHANNELS 3 Xrotation Yrotation Zrotation
											JOINT RightHandIndex4
											{
												OFFSET -10.212402 0.000000 0.000001
												CHANNELS 3 Xrotation Yrotation Zrotation
												End Site
												{
													OFFSET 5.180801 8.690506 1.388433
												}
											}
										}
									}
								}
								JOINT RightHandMiddle1
								{
									OFFSET -23.373947 0.000000 0.000001
									CHANNELS 3 Xrotation Yrotation Zrotation
									JOINT RightHandMiddle2
									{
										OFFSET -6.996567 0.000000 0.000000
										CHANNELS 3 Xrotation Yrotation Zrotation
										JOINT RightHandMiddle3
										{
											OFFSET -7.015945 0.000000 0.000000
											CHANNELS 3 Xrotation Yrotation Zrotation
											JOINT RightHandMiddle4
											{
												OFFSET -7.721573 0.000000 0.000000
												CHANNELS 3 Xrotation Yrotation Zrotation
												End Site
												{
													OFFSET 4.651108 6.158463 0.251582
												}
											}
										}
									}
								}
								JOINT RightHandRing1
								{
									OFFSET -22.726120 -0.094986 -6.500475
									CHANNELS 3 Xrotation Yrotation Zrotation
									JOINT RightHandRing2
									{
										OFFSET -6.408615 0.000000 0.000000
										CHANNELS 3 Xrotation Yrotation Zrotation
										JOINT RightHandRing3
										{
											OFFSET -6.150223 0.000000 0.000000
											CHANNELS 3 Xrotation Yrotation Zrotation
											JOINT RightHandRing4
											{
												OFFSET -6.145386 0.000000 0.000000
												CHANNELS 3 Xrotation Yrotation Zrotation
												End Site
												{
													OFFSET 3.671402 4.923981 -0.202372
												}
											}
										}
									}
								}
								JOINT RightHandPinky1
								{
									OFFSET -18.920792 -0.453171 -11.426712
									CHANNELS 3 Xrotation Yrotation Zrotation
									JOINT RightHandPinky2
									{
										OFFSET -4.919586 0.000000 0.000000
										CHANNELS 3 Xrotation Yrotation Zrotation
										JOINT RightHandPinky3
										{
											OFFSET -5.233047 0.000000 0.000000
											CHANNELS 3 Xrotation Yrotation Zrotation
											JOINT RightHandPinky4
											{
												OFFSET -5.571716 0.000000 0.000000
												CHANNELS 3 Xrotation Yrotation Zrotation
												End Site
												{
													OFFSET 3.459808 4.342407 -0.466164
												}
											}
										}
									}
								}
							}
						}
					}
				}
			}
		}
	}
	JOINT LeftUpLeg
	{
		OFFSET 19.899099 -7.885101 -3.429500
		CHANNELS 3 Xrotation Yrotation Zrotation
		JOINT LeftLeg
		{
			OFFSET 1.745560 -36.997807 10.304700
			CHANNELS 3 Xrotation Yrotation Zrotation
			JOINT LeftFoot
			{
				OFFSET -1.745558 -29.803308 -13.615400
				CHANNELS 3 Xrotation Yrotation Zrotation
				JOINT LeftToeBase
				{
					OFFSET 1.181900 -18.539904 15.226099
					CHANNELS 3 Xrotation Yrotation Zrotation
					JOINT LeftToe_End
					{
						OFFSET -0.863701 1.402801 16.534700
						CHANNELS 3 Xrotation Yrotation Zrotation
						End Site
						{
							OFFSET 0.000000 16.616566 0.000000
						}
					}
				}
			}
		}
	}
	JOINT RightUpLeg
	{
		OFFSET -19.899099 -7.885101 -3.429500
		CHANNELS 3 Xrotation Yrotation Zrotation
		JOINT RightLeg
		{
			OFFSET -1.745560 -36.997807 10.304700
			CHANNELS 3 Xrotation Yrotation Zrotation
			JOINT RightFoot
			{
				OFFSET 1.745558 -29.803308 -13.615400
				CHANNELS 3 Xrotation Yrotation Zrotation
				JOINT RightToeBase
				{
					OFFSET -1.181900 -18.539904 15.226099
					CHANNELS 3 Xrotation Yrotation Zrotation
					JOINT RightToe_End
					{
						OFFSET 0.863701 1.402801 16.534700
						CHANNELS 3 Xrotation Yrotation Zrotation
						End Site
						{
							OFFSET 0.000000 16.616566 0.000000
						}
					}
				}
			}
		}
	}
}
MOTION
Frames: 4
Frame Time: 0.033333
-2.037055 71.667877 0.199971 15.600273 -53.695945 12.207799 7.436644 3.690242 -3.546273 1.209171 1.420689 2.325049 0.209267 1.298824 1.049737 -1.852114 9.789349 -1.570086 -3.710346 23.673091 -4.987620 -0.000000 -0.000001 0.000000 -2.416909 -9.914491 -4.105215 -4.122517 -15.537830 -46.635579 -96.551684 -57.421926 -94.673273 0.031321 -0.319594 -3.255205 4.766516 -0.870668 -14.442455 15.732333 12.674826 8.828575 63.207049 -8.275006 4.266028 0.000000 0.000001 -0.000001 -8.868674 8.263638 -85.753872 -0.047926 -0.066875 -74.105661 -0.018474 -0.051654 -48.548783 -0.000000 0.000002 -0.000002 -4.480797 3.914213 -90.412512 -1.097239 -0.675684 -62.310716 -0.104340 1.185555 -72.505880 -0.000000 0.000000 0.000003 -5.483675 2.419538 -86.651031 -0.068349 -4.897250 -76.605503 1.509543 0.538126 -67.243288 0.000001 0.000001 0.000009 -3.610988 -7.817629 -81.262661 0.005165 -4.388530 -67.459074 1.852066 0.687175 -69.585824 -0.000001 -0.000000 0.000003 -7.387820 -19.317443 2.804091 3.089087 2.300724 51.805103 -16.213848 73.879424 16.738403 -2.716611 27.655231 10.524487 24.918362 -21.323364 30.343030 9.041918 8.262092 -18.001790 -16.109853 -19.128872 -12.401662 0.000001 -0.000001 -0.000001 -0.070719 -3.035199 61.424212 0.006471 4.395143 66.609186 1.919205 -0.429164 59.456687 -0.000002 0.000003 -0.000001 -1.235405 -0.119479 68.274270 -0.077282 4.902829 84.501905 0.918967 -1.334250 32.710268 0.000002 0.000001 -0.000008 0.883177 -4.613481 79.192943 -0.717759 1.136497 73.255766 -0.065393 -1.198569 39.144398 -0.000002 0.000004 -0.000005 -3.944570 0.100019 86.764788 -0.029801 0.060128 54.415157 -0.007552 0.030589 25.829822 -0.000002 -0.000003 0.000000 -70.915457 18.172715 47.544452 43.389098 -16.211756 3.505775 11.512458 0.395634 -16.161045 -2.525230 -3.753849 4.098987 0.000000 0.000000 0.000000 -26.500687 -19.825104 -46.799056 36.618987 7.130950 -1.216223 -12.754332 -9.991289 38.975348 -1.369721 0.621651 -0.987352 0.000000 -0.000000 -0.000000 
-1.962458 70.378250 -3.531582 13.852862 -51.536059 11.159257 7.814669 3.714323 -4.279870 1.403662 1.374541 1.856668 0.549063 1.267928 0.762919 -1.337998 8.762415 -1.732003 -6.416511 21.401648 -4.443453 0.000001 -0.000000 0.000000 -2.211477 -9.663751 -5.054565 -7.004102 -8.638625 -45.305697 -102.011580 -49.235087 -100.021140 -1.012763 2.462866 -6.279882 4.766519 -0.870668 -14.442462 15.732333 12.674825 8.828575 63.207049 -8.275010 4.266024 -0.000001 0.000004 0.000000 -8.868671 8.263634 -85.753872 -0.047922 -0.066877 -74.105661 -0.018478 -0.051653 -48.548780 0.000001 -0.000000 -0.000001 -4.480794 3.914212 -90.412512 -1.097241 -0.675677 -62.310723 -0.104341 1.185556 -72.505880 -0.000001 0.000000 0.000003 -5.483672 2.419539 -86.651031 -0.068348 -4.897254 -76.605503 1.509541 0.538126 -67.243281 -0.000000 -0.000002 0.000006 -3.610988 -7.817628 -81.262661 0.005161 -4.388527 -67.459074 1.852063 0.687176 -69.585831 0.000001 0.000005 0.000002 -5.571405 -14.029357 5.314965 3.240490 1.685193 47.282128 -8.453423 72.286201 8.661416 -0.750137 26.296215 5.287083 24.918366 -21.323357 30.343023 9.041921 8.262090 -18.001790 -16.109855 -19.128875 -12.401666 -0.000000 0.000001 0.000001 -0.070712 -3.035199 61.424212 0.006466 4.395136 66.609180 1.919205 -0.429161 59.456687 -0.000000 -0.000001 -0.000001 -1.235400 -0.119477 68.274270 -0.077284 4.902825 84.501905 0.918967 -1.334248 32.710275 0.000001 0.000001 -0.000004 0.883183 -4.613482 79.192943 -0.717758 1.136500 73.255760 -0.065390 -1.198568 39.144402 -0.000005 0.000002 0.000000 -3.944563 0.100018 86.764781 -0.029801 0.060129 54.415154 -0.007553 0.030587 25.829831 -0.000000 -0.000001 0.000000 -67.142037 13.418462 44.538407 36.807784 -15.907900 3.460367 17.549896 -0.810595 -21.813616 -2.899832 -3.610683 3.848681 0.000000 0.000002 0.000001 -22.735340 -12.173012 -43.987228 42.848724 8.324972 -0.729324 -19.109753 -11.905113 36.856964 -5.204620 0.296727 -0.859807 -0.000000 -0.000000 -0.000000 
-2.423867 69.881134 -7.244666 6.265230 -47.812793 6.034835 9.728945 3.429838 -5.348926 2.198640 1.218309 1.477842 1.513596 1.117042 0.585995 2.406624 6.812060 -1.360949 -9.596195 17.033921 -3.960104 0.000001 0.000001 -0.000000 -1.558547 -11.825091 -3.200746 -12.886960 -0.396892 -45.860663 -102.664382 -38.170096 -102.136463 -2.484333 2.984337 -5.533338 4.766519 -0.870668 -14.442461 15.732332 12.674824 8.828574 63.207049 -8.275010 4.266026 -0.000001 0.000001 -0.000001 -8.868672 8.263636 -85.753872 -0.047925 -0.066874 -74.105661 -0.018473 -0.051658 -48.548773 0.000002 0.000003 -0.000000 -4.480796 3.914216 -90.412512 -1.097242 -0.675684 -62.310709 -0.104338 1.185552 -72.505880 -0.000002 -0.000002 -0.000002 -5.483674 2.419542 -86.651038 -0.068347 -4.897254 -76.605510 1.509540 0.538127 -67.243288 0.000001 0.000000 0.000008 -3.610986 -7.817628 -81.262661 0.005163 -4.388533 -67.459074 1.852065 0.687176 -69.585824 -0.000002 0.000003 -0.000003 -4.145546 -8.810668 6.586174 5.332999 3.772049 42.312575 -7.315673 66.780289 7.119458 1.260382 25.600637 -0.485093 24.918367 -21.323362 30.343033 9.041921 8.262091 -18.001792 -16.109848 -19.128875 -12.401662 0.000000 -0.000001 0.000002 -0.070719 -3.035201 61.424212 0.006468 4.395138 66.609186 1.919202 -0.429155 59.456687 -0.000001 0.000002 -0.000001 -1.235403 -0.119477 68.274277 -0.077286 4.902830 84.501898 0.918970 -1.334251 32.710268 -0.000002 0.000000 -0.000004 0.883178 -4.613482 79.192943 -0.717761 1.136490 73.255760 -0.065397 -1.198566 39.144395 0.000001 0.000004 -0.000007 -3.944568 0.100019 86.764788 -0.029799 0.060124 54.415151 -0.007552 0.030589 25.829824 0.000003 -0.000000 0.000006 -60.314266 11.345924 41.210349 27.420160 -18.091778 2.414185 24.420757 -1.919430 -25.886214 -3.777489 -3.436679 3.439154 0.000000 -0.000001 -0.000000 -14.000687 -7.750380 -41.758127 47.395198 9.114828 -0.233875 -26.122243 -13.723821 34.227553 -8.708039 -0.012901 -0.752570 -0.000000 0.000001 0.000000 
-3.126920 70.650673 -10.950041 -7.092177 -41.689238 -2.512976 14.227305 3.253140 -6.190864 2.820005 1.111650 1.224716 2.312873 1.014973 0.547643 12.158360 4.055742 -1.536009 -8.639832 8.419116 0.759245 -0.000000 -0.000000 0.000001 -0.211234 -15.036709 1.899071 -18.555665 5.052068 -48.163615 -97.481170 -34.375441 -99.671161 -3.448903 -1.177187 -5.394267 4.766520 -0.870668 -14.442459 15.732332 12.674825 8.828577 63.207049 -8.275003 4.266026 0.000001 0.000001 0.000000 -8.868673 8.263639 -85.753872 -0.047924 -0.066872 -74.105667 -0.018474 -0.051661 -48.548773 -0.000000 0.000000 -0.000006 -4.480795 3.914215 -90.412519 -1.097240 -0.675683 -62.310709 -0.104341 1.185555 -72.505873 0.000001 -0.000001 0.000003 -5.483673 2.419541 -86.651038 -0.068343 -4.897250 -76.605503 1.509542 0.538124 -67.243288 -0.000000 -0.000001 0.000004 -3.610987 -7.817629 -81.262661 0.005163 -4.388529 -67.459081 1.852064 0.687176 -69.585817 -0.000000 -0.000004 0.000001 -2.970461 -4.325847 6.537623 8.905776 7.137612 36.888848 -4.360146 59.718912 5.132322 2.592496 26.024887 -4.514294 24.918357 -21.323364 30.343033 9.041923 8.262088 -18.001793 -16.109852 -19.128879 -12.401666 -0.000000 -0.000003 -0.000001 -0.070717 -3.035200 61.424219 0.006466 4.395139 66.609180 1.919201 -0.429162 59.456687 -0.000003 -0.000001 -0.000001 -1.235407 -0.119483 68.274277 -0.077285 4.902828 84.501912 0.918966 -1.334250 32.710268 0.000002 0.000001 -0.000006 0.883175 -4.613485 79.192943 -0.717759 1.136499 73.255766 -0.065389 -1.198568 39.144391 -0.000003 0.000001 -0.000003 -3.944567 0.100018 86.764788 -0.029802 0.060129 54.415154 -0.007551 0.030589 25.829825 -0.000003 -0.000001 0.000004 -51.331423 13.862069 37.153357 16.475926 -22.687865 0.839970 32.563678 -3.685426 -26.296474 -3.733699 -3.351202 3.344132 -0.000000 -0.000001 -0.000000 1.481879 -9.022734 -38.349549 47.956350 8.296845 -0.086843 -33.682637 -15.167760 30.922633 -9.870619 -0.226129 -0.796821 -0.000000 -0.000000 0.000000 
